<svg xmlns="http://www.w3.org/2000/svg" width="1635" height="171" fill="none" viewBox="0 0 1635 171"><path fill="#fff" d="M692.678 132.408c-24.023 0-41.274-17.897-41.274-42.565 0-24.507 17.251-42.242 40.63-42.242 23.378 0 40.791 17.735 40.791 42.242 0 1.29-.162 3.225-.323 4.837h-62.557c1.774 13.221 11.125 22.411 23.378 22.411 8.707 0 16.768-4.676 20.799-11.608l14.511 9.351c-7.256 10.48-21.283 17.574-35.955 17.574m-21.927-51.432h42.726c-2.902-10.803-11.125-18.058-21.443-18.058s-18.381 7.255-21.283 18.058m-55.034 51.16v-82.42h18.697v86.839c0 11.388-2.21 19.717-6.799 24.646-5.27 5.949-12.578 8.839-21.927 8.839l-5.099-16.827q8.413 0 11.728-4.59c2.21-3.229 3.4-8.668 3.4-16.487m21.058-113.199c0 6.487-5.259 11.747-11.747 11.747s-11.746-5.26-11.746-11.747c0-6.488 5.259-11.747 11.746-11.747 6.488 0 11.747 5.26 11.747 11.747m118.496-.005h18.702v30.765h16.285v15.317h-16.285v65.298h-18.702V65.014h-13.168V49.697h13.168z"/><path fill="#fff" fill-rule="evenodd" d="M356.464 130.312 371.585 99.7h57.484l14.937 30.612h19.506L400.326 1.052l-63.186 129.26zm22.955-46.62 20.907-42.602 20.906 42.601z" clip-rule="evenodd"/><path fill="#fff" d="M597.799 77.225c-5.852-7.462-12.918-13.512-26.114-13.512-13.705 0-23.701 10.975-23.701 26.291 0 15.156 9.996 26.281 23.701 26.281 13.196 0 20.262-6.19 26.114-13.636v21.209c-7.03 5.385-15.983 8.55-26.114 8.55-24.346 0-41.92-17.897-41.92-42.403 0-24.669 17.574-42.404 41.92-42.404 10.097 0 19.097 3.07 26.114 8.424zm-104.774 53.087H474.37V49.737h18.655v7.72c3.594-4.027 6.585-6.381 9.015-7.526 2.876-1.355 6.054-2.229 9.786-2.229s10.031 1.526 15.289 4.748l-8.48 16.96c-3.562-2.544-6.954-3.731-10.346-3.731q-15.264 0-15.264 22.896zM241.07 73.621c11.965 3.058 21.855 5.509 42.439 10.073-20.584 4.565-30.474 7.016-42.439 10.073a11.38 11.38 0 0 0-8.203 8.202c-3.057 11.962-5.508 21.856-10.072 42.44-4.565-20.584-7.016-30.478-10.073-42.44a11.38 11.38 0 0 0-8.202-8.202c-11.966-3.057-21.855-5.508-42.44-10.073 20.585-4.564 30.474-7.015 42.44-10.073a11.38 11.38 0 0 0 8.202-8.201c3.057-11.962 5.508-21.857 10.073-42.44 4.564 20.583 7.015 30.478 10.072 42.44a11.38 11.38 0 0 0 8.203 8.201"/><path fill="#fff" fill-rule="evenodd" d="m130.358 80.355 3.389 3.34-3.389 3.339c-31.202-2.26-60.598-2.579-107.962-3.093-6.994-.076-14.38-.156-22.22-.247 7.723-.09 15.004-.17 21.904-.244 47.549-.516 77.006-.836 108.278-3.095" clip-rule="evenodd"/><path fill="#2f2c36" d="M846.661 149.727 893.698 8.103h11.248L858.25 149.727z"/><path fill="#bfb9c8" d="M971.998 128.017V46h8.671v82.017zm8.085 0v-7.85h39.837v7.85zm0-38.313v-7.85h36.677v7.85zm0-35.854V46h39.717v7.85zm51.057 74.167 23.91-33.744 16.87-24.84h9.84l-22.14 31.519-18.4 27.065zm42.07 0-18.16-27.065-22.38-31.519h9.84l16.87 24.84 23.79 33.744zm55.53 0-.59-9.256v-21.91c0-4.765-.54-8.71-1.64-11.834q-1.635-4.804-5.04-7.147c-2.26-1.563-5.23-2.344-8.9-2.344-3.52 0-6.6.703-9.26 2.11q-3.87 2.107-6.21 6.444l-7.38-3.164c1.64-2.734 3.56-5.077 5.74-7.03q3.285-2.93 7.62-4.335c2.89-1.016 6.05-1.523 9.49-1.523 5.39 0 9.8 1.054 13.24 3.163 3.51 2.109 6.13 5.273 7.85 9.49 1.8 4.219 2.69 9.491 2.69 15.818v31.518zm-17.81 1.406q-10.32 0-16.17-4.686c-3.83-3.203-5.74-7.616-5.74-13.24 0-5.859 1.95-10.389 5.86-13.592 3.9-3.202 9.33-4.804 16.28-4.804h17.23v7.148h-15.59c-5.54 0-9.53.976-11.95 2.929q-3.63 2.93-3.63 8.202 0 5.037 3.63 7.85t10.08 2.812c3.59 0 6.68-.781 9.25-2.343 2.58-1.641 4.54-3.867 5.86-6.679 1.41-2.89 2.11-6.21 2.11-9.959h5.98c0 7.967-2.03 14.372-6.1 19.215q-5.97 7.147-17.1 7.147m40.76-1.406V69.434h7.61l.47 10.779v47.804zm41.59 0V98.022l8.21-3.515v33.51zm41.6 0V98.022l8.2-3.515v33.51zm-41.6-29.995q0-9.255-2.22-13.943c-1.41-3.202-3.36-5.39-5.86-6.56-2.5-1.25-5.31-1.876-8.44-1.876-5.31 0-9.49 1.953-12.53 5.859-2.97 3.905-4.46 9.334-4.46 16.286h-4.45q0-9.373 2.7-15.935c1.79-4.452 4.41-7.85 7.85-10.193 3.43-2.422 7.61-3.632 12.53-3.632 7.03 0 12.66 2.187 16.88 6.56q6.315 6.563 6.21 19.92zm41.6 0c0-6.17-.74-10.818-2.23-13.943-1.4-3.202-3.36-5.39-5.86-6.56q-3.63-1.876-8.43-1.876-7.965 0-12.42 5.859c-2.97 3.905-4.45 9.334-4.45 16.286h-4.46q0-9.373 2.58-15.935c1.8-4.452 4.41-7.85 7.85-10.193q5.16-3.632 12.54-3.632c7.03 0 12.65 2.187 16.87 6.56q6.33 6.563 6.21 19.92zm24.15 53.429V69.434h7.62l.46 10.779v71.238zm28.36-22.028c-4.93 0-9.3-1.288-13.13-3.866q-5.625-3.984-8.79-10.897c-2.03-4.686-3.04-9.998-3.04-15.934 0-6.015 1.01-11.327 3.04-15.935q3.165-6.913 8.79-10.78c3.83-2.656 8.2-3.983 13.13-3.983 5.15 0 9.72 1.327 13.7 3.983 3.99 2.578 7.11 6.171 9.38 10.78q3.39 6.912 3.39 15.935 0 8.904-3.39 15.934c-2.27 4.609-5.39 8.241-9.38 10.897-3.98 2.578-8.55 3.866-13.7 3.866m-1.76-7.381c3.9 0 7.34-.977 10.31-2.929 2.97-2.031 5.31-4.804 7.03-8.319q2.58-5.273 2.58-12.068 0-6.797-2.58-12.069c-1.64-3.515-3.95-6.249-6.91-8.202q-4.455-3.046-10.32-3.046-5.385 0-9.6 3.046c-2.82 1.953-5.04 4.687-6.68 8.202-1.56 3.515-2.35 7.538-2.35 12.069 0 4.53.79 8.553 2.35 12.068 1.64 3.515 3.83 6.288 6.56 8.319 2.81 1.952 6.01 2.929 9.61 2.929m41.81 5.975V46h8.09v82.017zm50.6 1.406q-8.43 0-15-3.866c-4.37-2.656-7.81-6.288-10.31-10.897q-3.63-6.913-3.63-15.934 0-9.023 3.63-15.935c2.5-4.609 5.9-8.202 10.19-10.78 4.3-2.656 9.22-3.983 14.77-3.983 5.47 0 10.15 1.366 14.06 4.1 3.9 2.656 6.91 6.406 9.02 11.248 2.19 4.765 3.28 10.311 3.28 16.638h-8.32c0-4.999-.7-9.295-2.11-12.888q-1.995-5.507-6.09-8.553-3.99-3.047-9.96-3.047c-3.98 0-7.5.977-10.54 2.93-3.05 1.952-5.43 4.686-7.15 8.201q-2.58 5.156-2.58 12.186 0 6.795 2.7 12.068c1.87 3.437 4.37 6.132 7.49 8.085 3.13 1.952 6.72 2.929 10.78 2.929 4.3 0 7.93-1.055 10.9-3.164 3.05-2.109 5.39-4.843 7.03-8.202l7.15 3.984a30.2 30.2 0 0 1-5.98 7.733q-3.51 3.398-8.43 5.273c-3.28 1.25-6.92 1.874-10.9 1.874m-23.43-29.409V92.75h44.05v7.264zm127.12 28.003-.59-9.256v-21.91c0-4.765-.54-8.71-1.64-11.834q-1.635-4.804-5.04-7.147c-2.26-1.563-5.23-2.344-8.9-2.344-3.52 0-6.6.703-9.26 2.11q-3.855 2.107-6.21 6.444l-7.38-3.164c1.64-2.734 3.56-5.077 5.74-7.03q3.285-2.93 7.62-4.335c2.89-1.016 6.05-1.523 9.49-1.523 5.39 0 9.8 1.054 13.24 3.163 3.51 2.109 6.13 5.273 7.85 9.49 1.8 4.219 2.69 9.491 2.69 15.818v31.518zm-17.81 1.406q-10.305 0-16.17-4.686c-3.83-3.203-5.74-7.616-5.74-13.24 0-5.859 1.95-10.389 5.86-13.592 3.9-3.202 9.33-4.804 16.28-4.804h17.23v7.148h-15.59c-5.54 0-9.53.976-11.95 2.929q-3.63 2.93-3.63 8.202 0 5.037 3.63 7.85t10.08 2.812c3.59 0 6.68-.781 9.26-2.343 2.57-1.641 4.53-3.867 5.85-6.679 1.41-2.89 2.11-6.21 2.11-9.959h5.98q0 11.95-6.09 19.215c-3.99 4.765-9.69 7.147-17.11 7.147m41.35 22.028V69.434h7.61l.47 10.779v71.238zm28.35-22.028c-4.92 0-9.29-1.288-13.12-3.866q-5.625-3.984-8.79-10.897c-2.03-4.686-3.05-9.998-3.05-15.934 0-6.015 1.02-11.327 3.05-15.935q3.165-6.913 8.79-10.78c3.83-2.656 8.2-3.983 13.12-3.983q7.74 0 13.71 3.983c3.98 2.578 7.11 6.171 9.37 10.78 2.27 4.608 3.4 9.92 3.4 15.935 0 5.936-1.13 11.248-3.4 15.934-2.26 4.609-5.39 8.241-9.37 10.897q-5.97 3.866-13.71 3.866m-1.76-7.381c3.91 0 7.35-.977 10.31-2.929 2.97-2.031 5.32-4.804 7.03-8.319q2.58-5.273 2.58-12.068 0-6.797-2.58-12.069c-1.64-3.515-3.94-6.249-6.91-8.202-2.97-2.03-6.4-3.046-10.31-3.046-3.59 0-6.8 1.015-9.61 3.046-2.81 1.953-5.04 4.687-6.68 8.202q-2.34 5.273-2.34 12.069 0 6.795 2.34 12.068 2.46 5.273 6.57 8.319 4.215 2.928 9.6 2.929m42.4 29.409V69.434h7.62l.47 10.779v71.238zm28.36-22.028c-4.92 0-9.3-1.288-13.13-3.866-3.75-2.656-6.67-6.288-8.78-10.897-2.03-4.686-3.05-9.998-3.05-15.934 0-6.015 1.02-11.327 3.05-15.935 2.11-4.609 5.03-8.202 8.78-10.78 3.83-2.656 8.21-3.983 13.13-3.983q7.725 0 13.71 3.983c3.98 2.578 7.1 6.171 9.37 10.78 2.26 4.608 3.4 9.92 3.4 15.935 0 5.936-1.14 11.248-3.4 15.934-2.27 4.609-5.39 8.241-9.37 10.897q-5.985 3.866-13.71 3.866m-1.76-7.381c3.91 0 7.34-.977 10.31-2.929 2.97-2.031 5.31-4.804 7.03-8.319q2.58-5.273 2.58-12.068 0-6.797-2.58-12.069c-1.64-3.515-3.94-6.249-6.91-8.202-2.97-2.03-6.41-3.046-10.31-3.046-3.6 0-6.8 1.015-9.61 3.046-2.81 1.953-5.04 4.687-6.68 8.202q-2.34 5.273-2.34 12.069 0 6.795 2.34 12.068c1.64 3.515 3.83 6.288 6.56 8.319 2.81 1.952 6.02 2.929 9.61 2.929"/></svg>